<svg width="481" height="376" xmlns="http://www.w3.org/2000/svg"><g fill="none" fill-rule="evenodd"><path fill="#FFF" d="M62.718 35.287l-41.77 50.708-7.072 20.88-1.232 250.281 6.748 8.01 393.495 2.361 53.857-50.698 9.291-130.914-5.55-134.144-9.483-1.983-1.877-14.98-134.753 1.208-37.791-31.533-69.149 2.085L190.3 36.335z"/><path d="M285.594 45.12h-59.499V75.2h-45.72V45.12H62.004v14.413H46.346V43.867h10.647V29.453H194.78v1.254h1.253v28.826h14.405v-30.08h90.813v30.08h14.405V30.707h-14.405V15.04h15.658v14.413h150.939v16.92H481V315.84h-15.658V59.533H452.19V45.12H331.314V75.2h-45.72V45.12zm135.281 308.636V104.649h.118V90.867h15.54V75.2h-15.658v13.791H30.689V75.2H15.03v28.2H0v257.56h15.54v15.035h389.677l15.658.005.118-.005V362.84h15.54v-15.667h-15.658v6.583zm-405.217 6.582v-255.69h389.56v255.69H15.657zM436.533 59.533h15.657V75.2h-15.657V59.533zM194.78 15.04h15.657v15.667H194.78V15.04zM210.437 0h90.814v15.667h-90.813V0zM30.69 59.533h15.657V75.2H30.69V59.533zm421.5 256.307h15.658v15.667H452.19V315.84zm-15.657 15.667h15.657v15.666h-15.657v-15.666z" fill="#000"/></g></svg>